<?xml version="1.0"?>
<svg xmlns:rdf="http://www.w3.org/1999/02/22-rdf-syntax-ns#" xmlns="http://www.w3.org/2000/svg" xmlns:cc="http://creativecommons.org/ns#" xmlns:xlink="http://www.w3.org/1999/xlink" xmlns:dc="http://purl.org/dc/elements/1.1/" xmlns:svg="http://www.w3.org/2000/svg" id="Layer_1" xml:space="preserve" viewBox="0 0 264.87429 396.86553" version="1.1" x="0px" y="0px" enable-background="new 0 0 595.28 841.89"><defs id="defs3853"><linearGradient id="linearGradient4633" y2="500.74" gradientUnits="userSpaceOnUse" y1="450.48" x2="393.08" x1="389.1"><stop id="stop3762" stop-color="#fff" offset="0"/><stop id="stop3764" stop-color="#009EE0" offset="1"/></linearGradient></defs>
<g id="g3727" transform="translate(-215.56 -383.75)">
	<rect id="rect3859" height="396.87" width="264.87" y="383.75" x="215.56" fill="#b3defd"/><path id="path3734" opacity=".79" d="m297.1 722.5c-1.075 0.061-72.468 5.783-50.769 14.311 1.59 0.625 2.442 0.682 2.442 0.682l29.247 3.748s9.199 3.406-2.045 6.133-10.223 9.881 11.585 15.674 84.501 11.244 112.1 5.793c27.6-5.453 52.814-2.727 57.924-8.52 5.111-5.791-6.812-20.443-21.463-20.783-14.654-0.342-14.654-7.156-6.475-11.244 8.178-4.09 0.34-25.557-19.764-20.104-20.104 5.451-92.68 2.725-92.68 2.725s-16.695-5.111-11.926 2.385c4.772 7.495-2.044 8.858-8.177 9.2z" fill="#cccccf"/>
	<path id="path3736" d="m426.02 411.04s14.766-14.083 22.943-0.453 10.904 9.768 0.908 25.214l-23.852-21.126c0.001 0-1.818-1.136 0.001-3.635z"/>
	<path id="path3738" d="m428.41 556.32s-7.496 5.451-6.135 10.223c1.365 4.771 6.814 10.223 9.201 10.223 2.385 0 2.043 0.34-1.021 2.045l-3.75 0.68 4.543 3.635s4.656 1.477 1.023 2.498-2.5 0.229-1.592 1.25 18.854 14.65 17.945 21.24 0.342 6.131-2.496 9.199c0 0-2.047 1.02-0.115 2.498 0 0 13.744 8.178-8.406 15.561l-4.199 4.088-103.47 9.541-27.6-71.213-9.541-55.881 20.785-4.771 114.83 39.184z"/>
	<path id="path3740" d="m361.39 401.5s-77.686 22.943-73.824 92.906 9.086 35.891 15.674 40.435 10.447 5.906 20.897 4.315-2.952 3.408-5.905 2.498c0 0-0.909 1.137 0.453 2.271 0 0 10.223 5.226 14.766 3.863 0 0 2.271-0.342 0.568 1.021l-3.237 0.682s-2.556-0.17-0.341 1.703 6.304 7.838 15.504 6.475 19.08-3.236 22.658-1.363 5.793-1.021 5.621 1.192l-1.703 2.896s-2.043 2.896 1.533 2.214 16.186-2.384 19.764-4.258 4.939-1.363 7.836 0.852 19.764 6.133 27.941 0.34c0 0 23.85-17.206 27.428-31.688 0 0 3.066-17.889-3.578-27.088 0 0 2.896-21.467 5.793-32.881 0 0 7.838-13.459-9.539-38.162-0.001 0.002-31.634-42.477-88.309-28.223z" fill="#fff"/>
	<path id="path3742" d="m282.34 423.98s-19.536 56.335 24.986 48.385 9.768-1.136 7.951-20.443 2.271-9.769 8.631-11.131c6.361-1.363 20.217-0.909 19.082-12.039 0 0 4.088-30.213-28.168-27.032 0 0-27.713 4.316-32.482 22.26z"/>
	<path id="path3744" d="m463.26 457.28s-16.469 23.056-13.629 35.096 2.953 13.401 6.814 13.062 8.404-2.613 7.949-22.716 3.069-29.986-1.134-25.442z"/>
	<path id="path3746" d="m433.85 518.27s5.338-4.77 11.242-4.314c5.906 0.453 12.152 1.135 11.586 6.359 0 0-3.408 9.769-9.883 11.357 0 0-6.359 4.657-13.061-7.496 0 0-2.498-3.748 0.116-5.906z"/>
	<linearGradient id="SVGID_2_" y2="524.06" gradientUnits="userSpaceOnUse" y1="514.98" x2="443.21" x1="442.99">
		<stop id="stop3749" stop-color="#fff" offset="0"/>
		<stop id="stop3751" offset="1"/>
	</linearGradient>
	<ellipse id="ellipse3753" d="m 447.07699,519.64899 c 0,1.66237 -1.77967,3.01 -3.975,3.01 -2.19533,0 -3.975,-1.34763 -3.975,-3.01 0,-1.66238 1.77967,-3.01 3.975,-3.01 2.19533,0 3.975,1.34762 3.975,3.01 z" rx="3.975" ry="3.01" cy="519.65" cx="443.1" fill="url(#SVGID_2_)"/>
	<path id="path3755" d="m440.32 529.52c-0.113 0.34 0.227 11.584 0.227 11.584s-20.67 1.704-27.258-4.088l0.34-2.387s-0.795-1.59-2.271 0-4.543 0.113-1.59 5.111 1.248 2.953 2.045 1.818l0.795-2.271s22.486 9.312 32.596 3.18 3.18-2.271 0.682-2.158l-2.838 0.567 1.25-12.606-3.978 1.25z"/>
	<path id="path3757" d="m379.84 455.06s-15.162 21.637-23.34 26.747-11.584 19.081-3.578 29.133c8.008 10.052 26.748 16.866 43.445 8.177 16.695-8.688 18.398-15.673 20.955-19.252 0 0 9.539-1.873 8.178-16.014 0 0 0.17-22.658-14.311-29.984 0.001-0.001-16.697-18.741-31.349 1.193z"/>
	<path id="path3759" d="m395.23 460s-27.713 22.262-16.355 39.98 16.809 15.445 23.17 3.18 0.908-21.126-2.045-34.527 0.455-12.949-4.77-9.087" fill="#646567"/>
	<path id="path3766" d="m393.47 475.11s-10.562 7.156-11.244 8.349-3.408 4.089-0.852 8.007 5.109 11.074 11.072 9.029 5.453 1.704 5.453-8.859-0.341-18.059-4.429-16.526z" fill="url(#linearGradient4633)"/>
		<ellipse id="ellipse3768" d="m 394.301,485.30499 c 0,2.36709 -2.28873,4.286 -5.112,4.286 -2.82328,0 -5.112,-1.91891 -5.112,-4.286 0,-2.36709 2.28872,-4.286 5.112,-4.286 2.82327,0 5.112,1.91891 5.112,4.286 z" rx="5.112" ry="4.286" transform="matrix(.8902 -.4556 .4556 .8902 -178.37 230.61)" cy="485.3" cx="389.19" fill="#fff"/>
		<ellipse id="ellipse3770" d="m 395.58799,495.01199 c 0,1.73583 -1.67849,3.143 -3.749,3.143 -2.07052,0 -3.749,-1.40717 -3.749,-3.143 0,-1.73583 1.67848,-3.143 3.749,-3.143 2.07051,0 3.749,1.40717 3.749,3.143 z" rx="3.749" ry="3.143" transform="matrix(.8902 -.4556 .4556 .8902 -182.51 232.9)" cy="495.01" cx="391.84" fill="#fff"/>
	<path id="path3772" d="m419.55 660.45s-0.229 30.211-2.953 34.982c-2.727 4.77-2.727 4.543-0.908 7.496 1.816 2.951 9.766 21.58-9.541 22.033-19.309 0.455-32.711-4.316-32.711-4.316l24.307-51.336 21.806-8.859z"/>
	<path id="path3774" d="m305.97 664.2s-1.591 15.221 3.18 24.762 3.634 2.725-0.682 8.178-11.131 25.439-7.496 41.342-1.136 0.227-5.452 2.271c0 0-9.086 2.498-5.451 9.768 0 0 7.269 15.219 49.065 7.27 0 0 8.86-0.455 16.583-11.357 0 0 22.033-19.537 22.941-20.445 0.91-0.908 20.898-39.525 20.898-40.207 0-0.68-59.06-28.166-62.467-26.123s-31.119 4.541-31.119 4.541z"/>
	<path id="path3776" d="m388.64 467.95 4.316-3.408s13.631 12.947 4.998 41.797h-2.045s6.36-19.763-7.269-38.389z" fill="#fff"/>
	<path id="path3778" d="m306.08 668.4s-2.954-25.441 1.362-32.938 36.119-2.498 41.342-11.357 3.408-10.904 12.949-10.449 25.668-4.543 29.303-7.27c0 0 41.797-9.312 47.021-1.816 0 0 6.359 32.711-6.814 49.066 0 0-29.984 38.615-37.709 43.613 0 0-23.852 8.404-33.393-5.68 0 0-13.4-8.631-16.354-17.49s-17.037-7.723-21.125-7.27l-16.582 1.591z" fill="#fff"/>
	<g id="g3780">
		<path id="path3782" d="m306.69 558.16s19.693-2.277 25.77 15.137 12.152 26.881 17.879 35.764 9.756 29.51-15.312 41.371-59.898 29.973-72.577 6.189c0 0-24.425-19.518-32.371-35.414-7.946-15.895-0.702-1.168-0.702-1.168s-18.055-20.162 17.65-42.773c-0.001 0 51.19-23.955 59.663-19.106z" fill="#fff"/>
		<g id="g3784" transform="translate(-5.045 6.3062)">
				<linearGradient id="SVGID_4_" x1="185.76" gradientUnits="userSpaceOnUse" y1="592.76" gradientTransform="matrix(.9012 -.4333 .4333 .9012 -160.15 141.83)" x2="278.5" y2="592.76">
				<stop id="stop3787" stop-color="#1E1E1E" offset=".0056"/>
				<stop id="stop3789" stop-color="#A1A1A1" offset=".0674"/>
				<stop id="stop3791" stop-color="#6D6D6D" offset=".1205"/>
				<stop id="stop3793" stop-color="#585858" offset=".1404"/>
				<stop id="stop3795" stop-color="#666" offset=".8596"/>
				<stop id="stop3797" stop-color="#fff" offset=".9157"/>
				<stop id="stop3799" offset="1"/>
			</linearGradient>
			<path id="path3801" d="m381.9 626.53c2.807 5.842 0.35 12.854-5.492 15.662l-62.424 30.014c-5.844 2.807-12.855 0.348-15.664-5.492l-68.44-142.34c-2.808-5.842-0.349-12.854 5.492-15.663l62.424-30.013c5.843-2.809 12.855-0.35 15.663 5.492l68.439 142.35z" stroke="#000" fill="url(#SVGID_4_)"/>
			<path id="path3803" d="m375.85 624.3c2.809 5.842 0.35 12.855-5.492 15.664l-54.326 26.121c-5.842 2.807-12.855 0.348-15.664-5.492l-64.419-133.99c-2.809-5.842-0.35-12.854 5.492-15.663l54.326-26.12c5.844-2.808 12.855-0.35 15.665 5.493l64.418 133.99z" stroke="#000" fill="#fff"/>
				<linearGradient id="SVGID_5_" x1="229.43" gradientUnits="userSpaceOnUse" y1="536.46" gradientTransform="matrix(.9012 -.4333 .4333 .9012 -160.15 141.83)" x2="235.52" y2="663.4">
				<stop id="stop3806" stop-color="#0086CB" offset="0"/>
				<stop id="stop3808" stop-color="#8AD2F1" offset="1"/>
			</linearGradient>
			<path id="path3810" d="m373.81 623.57c2.75 5.721 0.416 12.553-5.215 15.26l-52.352 25.17c-5.631 2.707-12.424 0.264-15.174-5.457l-63.1-131.21c-2.75-5.721-0.417-12.553 5.214-15.26l52.353-25.17c5.63-2.707 12.422-0.264 15.174 5.457l63.083 131.21z" stroke="#000" fill="url(#SVGID_5_)"/>
				<linearGradient id="SVGID_6_" x1="232.37" gradientUnits="userSpaceOnUse" y1="547.39" gradientTransform="matrix(.9012 -.4333 .4333 .9012 -160.15 141.83)" x2="230.2" y2="609.55">
				<stop id="stop3813" stop-color="#fff" offset="0"/>
				<stop id="stop3815" stop-color="#dcdcdc" stop-opacity=".76515" offset="1"/>
			</linearGradient>
			<path id="path3817" opacity=".51029" d="m340.44 554.17-29.72-61.81c-2.752-5.721-9.544-8.164-15.174-5.457l-52.353 25.17c-5.63 2.707-7.964 9.539-5.214 15.26l27.932 58.096c22.633-2.58 51.145-10.379 74.526-31.258z" fill="url(#SVGID_6_)"/>
			<path id="path3819" stroke="#000" d="m295.53 486.91-52.352 25.17c-5.631 2.707-7.965 9.539-5.214 15.26l7.745 16.107 72.741-34.972-7.746-16.108c-2.75-5.721-9.543-8.164-15.174-5.457zm5.516 171.64c2.751 5.721 9.545 8.164 15.174 5.455l52.354-25.17c5.631-2.705 7.965-9.537 5.213-15.26l-5.045-10.492-72.74 34.973 5.044 10.494z"/>
			<path id="path3821" d="m283.8 513.94c0.247 0.515 0.031 1.131-0.482 1.378l-13.518 6.499c-0.514 0.246-1.131 0.03-1.377-0.483-0.247-0.514-0.031-1.132 0.482-1.378l13.518-6.498c0.514-0.248 1.131-0.031 1.377 0.482z" stroke="#000" fill="#fff"/>
			<circle id="circle3823" d="m 342.957,641.43701 c 0,4.20178 -3.40622,7.608 -7.608,7.608 -4.20178,0 -7.608,-3.40622 -7.608,-7.608 0,-4.20178 3.40622,-7.608 7.608,-7.608 4.20178,0 7.608,3.40622 7.608,7.608 z" cx="335.35" cy="641.44" stroke="#000" r="7.608" fill="#646567"/>
		</g>
			<ellipse id="ellipse3825" d="m 348.71601,649.16199 c 0,9.03261 -15.25501,16.355 -34.073,16.355 -18.818,0 -34.07301,-7.32239 -34.07301,-16.355 0,-9.03262 15.25501,-16.355 34.07301,-16.355 18.81799,0 34.073,7.32238 34.073,16.355 z" rx="34.073" ry="16.355" transform="matrix(.8575 -.5144 .5144 .8575 -289.12 254.35)" cy="649.16" cx="314.64" fill="#fff"/>
		<g id="g3827">
			<g id="g3831">
					<ellipse id="ellipse3833" d="m 336.23,629.91602 c 0,13.67401 -19.22176,24.759 -42.933,24.759 -23.71124,0 -42.933,-11.08499 -42.933,-24.759 0,-13.67402 19.22176,-24.75901 42.933,-24.75901 23.71124,0 42.933,11.08499 42.933,24.75901 z" rx="42.933" ry="24.759" transform="matrix(.8575 -.5145 .5145 .8575 -282.27 240.64)" cy="629.92" cx="293.3" fill="#fff"/>
			</g>
		</g>
		<g id="g3835">
			<g id="g3839">
					<ellipse id="ellipse3841" d="m 311.25999,595.35901 c 0,15.05418 -19.22175,27.258 -42.93299,27.258 -23.71124,0 -42.933,-12.20382 -42.933,-27.258 0,-15.05418 19.22176,-27.258 42.933,-27.258 23.71124,0 42.93299,12.20382 42.93299,27.258 z" rx="42.933" ry="27.258" transform="matrix(.8575 -.5145 .5145 .8575 -268.05 222.87)" cy="595.36" cx="268.33" fill="#fff"/>
			</g>
		</g>
		<g id="g3843" transform="translate(-.94593 -.63062)">
			<g id="g3847">
					<ellipse id="ellipse3849" d="m 369.31401,550.81897 c 0,12.04367 -11.39077,21.807 -25.442,21.807 -14.05123,0 -25.442,-9.76333 -25.442,-21.807 0,-12.04367 11.39077,-21.807 25.442,-21.807 14.05123,0 25.442,9.76333 25.442,21.807 z" rx="25.442" ry="21.807" transform="matrix(.8575 -.5144 .5144 .8575 -234.36 255.37)" cy="550.82" cx="343.87" fill="#fff"/>
			</g>
		</g>
	</g>
</g>
<metadata><rdf:RDF><cc:Work><dc:format>image/svg+xml</dc:format><dc:type rdf:resource="http://purl.org/dc/dcmitype/StillImage"/><cc:license rdf:resource="http://creativecommons.org/licenses/publicdomain/"/><dc:publisher><cc:Agent rdf:about="http://openclipart.org/"><dc:title>Openclipart</dc:title></cc:Agent></dc:publisher><dc:title>Panda with mobile phone</dc:title><dc:date>2010-07-31T23:35:11</dc:date><dc:description>Panda holding mobile phone on blue background.</dc:description><dc:source>http://openclipart.org/detail/75691/panda-with-mobile-phone-by-shokunin</dc:source><dc:creator><cc:Agent><dc:title>shokunin</dc:title></cc:Agent></dc:creator><dc:subject><rdf:Bag><rdf:li>bear</rdf:li><rdf:li>blue</rdf:li><rdf:li>clip art</rdf:li><rdf:li>clipart</rdf:li><rdf:li>mobile phone</rdf:li><rdf:li>panda</rdf:li><rdf:li>panda bear</rdf:li><rdf:li>phone</rdf:li><rdf:li>touch screen</rdf:li></rdf:Bag></dc:subject></cc:Work><cc:License rdf:about="http://creativecommons.org/licenses/publicdomain/"><cc:permits rdf:resource="http://creativecommons.org/ns#Reproduction"/><cc:permits rdf:resource="http://creativecommons.org/ns#Distribution"/><cc:permits rdf:resource="http://creativecommons.org/ns#DerivativeWorks"/></cc:License></rdf:RDF></metadata></svg>
